<?xml version="1.0" encoding="utf-8"?>
<!-- Generator: Adobe Illustrator 27.3.1, SVG Export Plug-In . SVG Version: 6.00 Build 0)  -->
<svg version="1.1" id="Layer_4" xmlns="http://www.w3.org/2000/svg" xmlns:xlink="http://www.w3.org/1999/xlink" x="0px" y="0px"
	 viewBox="0 0 612 792" style="enable-background:new 0 0 612 792;" xml:space="preserve">
<style type="text/css">
	.st0{fill:none;stroke:#000000;stroke-miterlimit:10;}
	.st1{fill:none;stroke:#000000;stroke-width:1.2;stroke-miterlimit:10;}
</style>
<path class="st0" d="M317.15,336.29"/>
<g>
	<ellipse class="st1" cx="317.15" cy="336.29" rx="50.92" ry="50.93"/>
	<path class="st0" d="M317.35,387.22c1.48-2.02,4.37-5.95,5.7-10.89c0.77-2.87,0.68-4.67,0.56-5.71c-0.19-1.64-0.65-2.83-1.12-4.02
		c-1.02-2.59-1.9-3.39-3.7-6.83c-0.67-1.29-1.17-4.84-1.45-5.46c-0.28,0.62-0.77,4.18-1.45,5.46c-1.8,3.44-2.67,4.24-3.7,6.83
		c-0.47,1.19-0.93,2.38-1.12,4.02c-0.12,1.03-0.21,2.84,0.56,5.71c1.33,4.95,4.21,8.88,5.7,10.89H317.35z"/>
	<path class="st0" d="M266.82,337.09c2.05,1.48,7.77,4.36,12.78,5.69c2.91,0.77,4.74,0.68,5.78,0.56c1.66-0.19,2.86-0.65,4.07-1.12
		c2.62-1.02,3.44-1.9,6.92-3.7c1.31-0.67,4.9-1.17,5.54-1.45c-0.63-0.28-4.23-0.77-5.54-1.45c-3.48-1.8-4.3-2.67-6.92-3.7
		c-1.21-0.47-2.41-0.93-4.07-1.12c-1.04-0.12-2.87-0.21-5.78,0.56c-5.01,1.33-10.74,4.22-12.78,5.71V337.09z"/>
	<path class="st0" d="M317.33,285.36c-1.48,2.05-4.37,7.03-5.7,12.04c-0.77,2.91-0.68,4.74-0.56,5.78c0.19,1.66,0.65,2.86,1.12,4.07
		c1.02,2.62,1.9,3.44,3.7,6.92c0.67,1.31,1.17,4.9,1.45,5.54c0.28-0.63,0.77-4.23,1.45-5.54c1.8-3.48,2.67-4.3,3.7-6.92
		c0.47-1.21,0.93-2.41,1.12-4.07c0.12-1.04,0.21-2.87-0.56-5.78c-1.33-5.01-4.21-10-5.7-12.04H317.33z"/>
	<path class="st0" d="M317.32,280.51c-1.81,2.32-5.32,8.8-6.94,14.48c-0.94,3.29-0.83,5.36-0.69,6.55c0.24,1.88,0.8,3.24,1.37,4.61
		c1.25,2.97,2.31,3.89,4.51,7.84c0.82,1.48,1.42,5.55,1.76,6.27c0.34-0.72,0.94-4.79,1.76-6.27c2.19-3.95,3.26-4.87,4.51-7.84
		c0.57-1.37,1.14-2.73,1.37-4.61c0.15-1.18,0.25-3.25-0.69-6.55c-1.62-5.68-5.15-12.16-6.96-14.48H317.32z"/>
	<path class="st0" d="M317.36,392.07c1.81-2.32,5.32-6.69,6.94-12.36c0.94-3.29,0.83-5.36,0.69-6.55c-0.24-1.88-0.8-3.24-1.37-4.61
		c-1.25-2.97-2.31-3.89-4.51-7.84c-0.82-1.48-1.42-5.55-1.76-6.27c-0.34,0.72-0.94,4.79-1.76,6.27c-2.19,3.95-3.26,4.87-4.51,7.84
		c-0.57,1.37-1.14,2.73-1.37,4.61c-0.15,1.18-0.25,3.25,0.69,6.55c1.62,5.68,5.15,10.05,6.96,12.36H317.36z"/>
	<path class="st0" d="M367.81,337.09c-2.05,1.48-7.77,4.36-12.78,5.69c-2.91,0.77-4.74,0.68-5.78,0.56
		c-1.66-0.19-2.86-0.65-4.07-1.12c-2.62-1.02-3.44-1.9-6.92-3.7c-1.31-0.67-4.9-1.17-5.54-1.45c0.63-0.28,4.23-0.77,5.54-1.45
		c3.48-1.8,4.3-2.67,6.92-3.7c1.21-0.47,2.41-0.93,4.07-1.12c1.04-0.12,2.87-0.21,5.78,0.56c5.01,1.33,10.74,4.22,12.78,5.71V337.09
		z"/>
	<path class="st0" d="M371.36,337.06c-2.23-1.86-9.12-5.47-14.6-7.14c-3.18-0.97-5.17-0.86-6.32-0.7c-1.81,0.24-3.13,0.82-4.45,1.41
		c-2.87,1.28-3.76,2.38-7.56,4.63c-1.43,0.84-5.36,1.46-6.05,1.81c0.69,0.35,4.62,0.97,6.05,1.81c3.81,2.25,4.69,3.35,7.56,4.63
		c1.32,0.59,2.63,1.17,4.45,1.41c1.14,0.15,3.14,0.26,6.32-0.7c5.48-1.67,12.36-5.28,14.6-7.14V337.06z"/>
	<path class="st0" d="M263.16,337.06c2.23-1.86,8.91-5.47,14.39-7.14c3.18-0.97,5.17-0.86,6.32-0.7c1.81,0.24,3.13,0.82,4.45,1.41
		c2.87,1.28,3.76,2.38,7.56,4.63c1.43,0.84,5.36,1.46,6.05,1.81c-0.69,0.35-4.62,0.97-6.05,1.81c-3.81,2.25-4.69,3.35-7.56,4.63
		c-1.32,0.59-2.63,1.17-4.45,1.41c-1.14,0.15-3.14,0.26-6.32-0.7c-5.48-1.67-12.15-5.28-14.39-7.14V337.06z"/>
	
		<ellipse transform="matrix(0.9239 -0.3827 0.3827 0.9239 -97.6149 143.9784)" class="st0" cx="313.11" cy="317.36" rx="3.43" ry="5.03"/>
	
		<ellipse transform="matrix(0.9239 -0.3827 0.3827 0.9239 -112.0397 150.2684)" class="st0" cx="321.71" cy="356.76" rx="3.43" ry="5.03"/>
	
		<ellipse transform="matrix(0.3827 -0.9239 0.9239 0.3827 -94.6091 493.129)" class="st0" cx="321.71" cy="317.36" rx="5.03" ry="3.43"/>
	
		<ellipse transform="matrix(0.3827 -0.9239 0.9239 0.3827 -136.3219 509.5097)" class="st0" cx="313.11" cy="356.76" rx="5.03" ry="3.43"/>
	<polygon class="st0" points="299.01,337.08 291.96,341.44 287.6,337.08 291.96,332.72 	"/>
	<polygon class="st0" points="335.55,337.08 342.6,341.44 346.96,337.08 342.6,332.72 	"/>
	<circle class="st1" cx="317.15" cy="337.34" r="31.24"/>
	<ellipse class="st1" cx="317.34" cy="337.34" rx="40.85" ry="40.85"/>
	<circle class="st1" cx="317.15" cy="336.29" r="56.9"/>
</g>
<polygon class="st0" points="332.05,337.08 317.34,354.3 302.43,337.08 317.34,320.25 "/>
</svg>
